<svg viewBox="0 0 1344 940.82" xmlns:xlink="http://www.w3.org/1999/xlink" xmlns="http://www.w3.org/2000/svg"><defs><style>.cls-1{fill:#e6f0f5;}.cls-2{fill:url(#linear-gradient);}.cls-3{fill:#fff;}.cls-4{fill:url(#linear-gradient-2);}.cls-5{fill:url(#linear-gradient-3);}.cls-6{fill:url(#linear-gradient-4);}.cls-7{fill:url(#linear-gradient-5);}.cls-8{fill:url(#linear-gradient-6);}.cls-9{fill:url(#linear-gradient-7);}.cls-10{fill:url(#linear-gradient-8);}.cls-11{fill:url(#linear-gradient-9);}.cls-12{fill:#23887c;}.cls-13{fill:#ffc6b3;}.cls-14{fill:url(#linear-gradient-10);}.cls-15{fill:url(#linear-gradient-11);}.cls-16{fill:#2cc9b8;}.cls-17{fill:url(#linear-gradient-12);}.cls-18{fill:url(#linear-gradient-13);}.cls-19{fill:url(#linear-gradient-14);}.cls-20{fill:#0a0e1e;}.cls-21{fill:url(#linear-gradient-15);}.cls-22{opacity:0.2;}.cls-23{fill:url(#linear-gradient-16);}.cls-24{fill:url(#linear-gradient-17);}.cls-25{fill:url(#linear-gradient-18);}.cls-26{fill:url(#linear-gradient-19);}.cls-27{fill:url(#linear-gradient-20);}.cls-28{fill:url(#linear-gradient-21);}.cls-29{fill:#161c3e;}.cls-30{fill:url(#linear-gradient-22);}.cls-31{fill:url(#linear-gradient-23);}</style><linearGradient gradientUnits="userSpaceOnUse" y2="685.19" x2="209.07" y1="930.73" x1="303.32" id="linear-gradient"><stop stop-color="#90bfa5" offset="0"></stop><stop stop-color="#c4dfcc" offset="1"></stop></linearGradient><linearGradient xlink:href="#linear-gradient" y2="867.65" x2="282.04" y1="867.65" x1="110.58" id="linear-gradient-2"></linearGradient><linearGradient xlink:href="#linear-gradient" y2="849.16" x2="500" y1="849.16" x1="315.3" id="linear-gradient-3"></linearGradient><linearGradient xlink:href="#linear-gradient" y2="745.9" x2="1074.06" y1="941.36" x1="1133.14" id="linear-gradient-4"></linearGradient><linearGradient xlink:href="#linear-gradient" y2="892.09" x2="1096.98" y1="892.09" x1="966" id="linear-gradient-5"></linearGradient><linearGradient xlink:href="#linear-gradient" y2="822.64" x2="1181.25" y1="927.75" x1="1198.62" id="linear-gradient-6"></linearGradient><linearGradient gradientUnits="userSpaceOnUse" y2="869.76" x2="1278" y1="869.76" x1="361.56" id="linear-gradient-7"><stop stop-color="#f7a06a" offset="0"></stop><stop stop-color="#ffd18f" offset="1"></stop></linearGradient><linearGradient xlink:href="#linear-gradient-7" y2="903.06" x2="825" y1="903.06" x1="111" id="linear-gradient-8"></linearGradient><linearGradient gradientUnits="userSpaceOnUse" y2="450.21" x2="538.5" y1="450.21" x1="321" id="linear-gradient-9"><stop stop-color="#3baca0" offset="0"></stop><stop stop-color="#58c6b6" offset="1"></stop></linearGradient><linearGradient gradientUnits="userSpaceOnUse" y2="226.08" x2="859.39" y1="297.76" x1="803.2" id="linear-gradient-10"><stop stop-color="#ed6263" offset="0"></stop><stop stop-color="#ffa9a9" offset="1"></stop></linearGradient><linearGradient gradientUnits="userSpaceOnUse" y2="51.93" x2="1026.19" y1="145.12" x1="1132.28" id="linear-gradient-11"><stop stop-color="#002452" offset="0"></stop><stop stop-color="#001328" offset="1"></stop></linearGradient><linearGradient xlink:href="#linear-gradient-11" y2="52.57" x2="1040.87" y1="52.57" x1="949.7" id="linear-gradient-12"></linearGradient><linearGradient xlink:href="#linear-gradient-10" y2="79.34" x2="934.21" y1="141.53" x1="1043.05" id="linear-gradient-13"></linearGradient><linearGradient xlink:href="#linear-gradient-9" y2="40.33" x2="1041.48" y1="40.33" x1="932.2" id="linear-gradient-14"></linearGradient><linearGradient xlink:href="#linear-gradient-10" y2="617.74" x2="631.16" y1="609.24" x1="821.02" id="linear-gradient-15"></linearGradient><linearGradient xlink:href="#linear-gradient-11" y2="409.06" x2="865.32" y1="462.1" x1="707.62" id="linear-gradient-16"></linearGradient><linearGradient xlink:href="#linear-gradient-10" y2="655.81" x2="785.22" y1="658.68" x1="917.12" id="linear-gradient-17"></linearGradient><linearGradient xlink:href="#linear-gradient-11" y2="889.95" x2="943.62" y1="889.95" x1="796.29" id="linear-gradient-18"></linearGradient><linearGradient gradientUnits="userSpaceOnUse" y2="556.34" x2="908.7" y1="390.04" x1="898.66" id="linear-gradient-19"><stop stop-color="#404aa9" offset="0"></stop><stop stop-color="#7284d3" offset="1"></stop></linearGradient><linearGradient xlink:href="#linear-gradient-11" y2="845.53" x2="538.92" y1="845.53" x1="351.93" id="linear-gradient-20"></linearGradient><linearGradient xlink:href="#linear-gradient-9" y2="298.92" x2="1137.16" y1="298.92" x1="796.91" id="linear-gradient-21"></linearGradient><linearGradient xlink:href="#linear-gradient-10" y2="348.24" x2="852.35" y1="460.75" x1="727.04" id="linear-gradient-22"></linearGradient><linearGradient xlink:href="#linear-gradient-10" y2="441.09" x2="926.2" y1="316.56" x1="1127.15" id="linear-gradient-23"></linearGradient></defs><g data-name="图层 2" id="图层_2"><g id="Tennis"><g id="Background"><path d="M1281.22,940.46H102.59S-10.67,935.54.82,797.65c0,0,62.38-446.5,490.82-522,0,0,146.1-26.27,241.31,105.05,0,0,93.57,114.91,242.95,73.87,0,0,274.13-83.72,362.78,305.33C1338.68,759.89,1369.87,892.86,1281.22,940.46Z" class="cls-1"></path></g><g id="Plant"><path d="M340.36,863.47h0c-.2,2.57-.53,5.2-1,7.91,0,0-4.11,39.66-16.12,59.33h-58.5L212.34,865s-11.17-15.22-13.22-32.69h0a40.86,40.86,0,0,1,.52-13.35s2.86-21.87-19.06-41.29c-19.06-16.87-35.82-58.66,19.06-100,13.64-10.29,54.26-29.1,68.11,12.91,7,21.11,7.09,24.13,3.35,69.44-1,12,9.2,35.14,31.16,39.9C321.07,804,343.2,827.65,340.36,863.47Z" class="cls-2"></path><path d="M290.58,932.94c-56.75-74.09-77.15-225.76-77.35-227.28l3-.39c.2,1.51,20.5,152.39,76.76,225.84Z" class="cls-3"></path><path d="M282,930.72H196.19c-24.7-7.68-22.67-24.09-23.55-34-1.75-19.57-25-18.7-34.94-20.65-34.37-6.71-29.54-40.38-20.64-50.81,33.55-39.28,72.86-13.81,81,4.77.35.81.71,1.57,1.07,2.32h0c10.33,21,25.92,18.31,25.92,18.31C272.51,833.39,280.89,915.2,282,930.72Z" class="cls-4"></path><path d="M480.68,830c-9.21,7.06-31.76,17.46-28.59,36.51,0,0,5.84,43.79-42.64,64.19H315.3l3.42-7s5.16-33.81,21.64-60.22h0c9.38-15,22.43-27.66,40.28-30.28,7.51-1.09,17.46,0,22.23-20.64,0,0,1.18-60.17,65.1-41.28C482.38,775.53,524.33,796.53,480.68,830Z" class="cls-5"></path><path d="M259,931.54c-35.34-54.25-108.47-90.29-109.21-90.65l1.32-2.69c.74.36,74.62,36.76,110.41,91.7Z" class="cls-3"></path><path d="M362.93,931l-2.69-1.32c2.21-4.51,54.8-110.57,105.51-134.33L467,798C417.26,821.36,363.47,929.88,362.93,931Z" class="cls-3"></path></g><g data-name="Plant" id="Plant-2"><path d="M1158.41,904.5q-1,2.78-2.28,5.61s-6.19,16.27-14.7,29.41h-50.06l-1.63-.44-31.82-50.82s-7-7.76-4.34-20.85c0,0,1.74-6.08,10.21-23.09,3.85-7.73,6.37-15.5-5.93-34a39.46,39.46,0,0,1-2.59-4.55c-8.42-17.32-8.06-47.21,36.13-65.16,12-4.88,45.53-10.76,47.49,22.79.89,15.1.58,18.48-7.82,42.37-1,2.8-2.08,5.87-3.29,9.28-3.09,8.63-.11,27.6,15.08,35.38C1155.87,857.07,1167.5,878.75,1158.41,904.5Z" class="cls-6"></path><path d="M1108,939.82c-27.23-65.59-12.54-175-12.39-176.11l3,.41c-.15,1.09-14.72,109.72,12.19,174.55Z" class="cls-3"></path><path d="M1097,939.88h-65.23c-18.77-5.83-17.22-18.3-17.9-25.84-1.32-14.86-19-14.21-26.54-15.68-26.12-5.1-24.08-29.21-15.68-38.61,26.16-29.27,55.36-10.5,61.53,3.62.27.61.54,1.2.82,1.76h0c7.85,15.94,19.69,13.92,19.69,13.92C1089.74,865.93,1096.1,928.09,1097,939.88Z" class="cls-7"></path><path d="M1247.9,863.37c-7,5.36-24.13,13.27-21.71,27.75,0,0,4.43,33.26-32.41,48.76h-71.53l2.6-5.33s3.92-25.69,16.44-45.76h0c7.13-11.42,17-21,30.61-23,5.7-.83,13.26,0,16.89-15.68,0,0,.89-45.72,49.46-31.37C1249.2,822,1281.07,837.93,1247.9,863.37Z" class="cls-8"></path><path d="M1079.14,940.7c-26.78-41.12-82.27-68.47-82.83-68.74l1.31-2.7c.57.28,56.79,28,84,69.8Z" class="cls-3"></path><path d="M1158.77,940.23l-2.7-1.32c1.69-3.43,41.7-84.12,80.34-102.23l1.27,2.71C1200,857.06,1159.17,939.4,1158.77,940.23Z" class="cls-3"></path></g><g id="Sand"><path d="M405,922.46s152.28-1.39,197-35c57.17-43,133.43-144.72,282-48,22.78,14.83,53,48,99,45s98-9,138,19,41,21,93,19,64,18,64,18H361.56Z" class="cls-9"></path><path d="M111,940.46H825s-108-4-172-30c0,0-189.5-91.5-324-13,0,0-59.5,28.5-100.5,22.5C228.5,920,149.5,916,111,940.46Z" class="cls-10"></path></g><g id="Ball"><path d="M538.5,450.21c0,1.9,0,3.78-.15,5.65A108.76,108.76,0,0,1,429.75,559a111.73,111.73,0,0,1-11.49-.6,107.34,107.34,0,0,1-10.82-1.69,108.79,108.79,0,0,1-86-96.29q-.48-5-.48-10.17a108.75,108.75,0,0,1,217.5,0Z" class="cls-11"></path><path d="M487.75,449.74a43.67,43.67,0,0,0,3.67-5.76Z" class="cls-12"></path><path d="M517.29,476.38c-34.69,37-64.83,47.36-89.23,45.52L444.19,508l28.88-35.2,14.68-23c-12.11,16.46-42.27,42.2-53.49,51-7.09,5.57-15.42,13.23-20.95,18.46-20.76-6.06-36.12-20.4-45-30.82A82.52,82.52,0,0,1,355,466.8c-10.16-24.25-12.28-44.13-10.35-60l28.22-30.57c-9.52,1.68-18.7,8.57-24.29,13.56a74,74,0,0,1,17-27.38A108.61,108.61,0,0,0,321,450.21q0,5.15.48,10.17a108.79,108.79,0,0,0,86,96.29,107.34,107.34,0,0,0,10.82,1.69,111.73,111.73,0,0,0,11.49.6,108.76,108.76,0,0,0,108.6-103.1A282.74,282.74,0,0,0,517.29,476.38Z" class="cls-12"></path><path d="M418.26,558.36c-.4-20,18.85-36.62,19.08-36.81,39-33.55,58.05-64.06,58.8-65.29,8.87-14,11.51-29.09,7.87-44.78A65.25,65.25,0,0,0,480,375c-33.34-25.65-64.47-17.89-67.38-17.08-35,8.09-64.05,29.48-84.14,61.84-2,3.19-3.79,6.34-5.42,9.41A108.49,108.49,0,0,0,321,450.21q0,5.15.48,10.17a160.41,160.41,0,0,1,16.19-34.95c18.82-30.33,44.9-49.51,77.5-57l.28-.07c1.14-.33,28.22-7.65,57.94,15.22a54.3,54.3,0,0,1,20.07,30.37c3,12.77.79,25.07-6.49,36.61-.19.29-19,30.34-56.66,62.78-1,.82-22.28,19.16-22.87,43.36Z" class="cls-13"></path></g><g id="Woman"><polygon points="881.49 268.57 827.97 322.09 736.22 312.54 802.48 239 818.13 221.62 881.49 268.57" class="cls-14"></polygon><path d="M1032.56,33.56s43.9-6,54.63,18.8c0,0,3.38,6.77,4,26,0,0-4.52,55.87,48,59.26,0,0-77,39.23-86.66-19.76-3.16-19.19,16.37-57.62-3.08-68.39-3.15-1.75-15.08-.53-15.08-.53Z" class="cls-15"></path><path d="M1029.42,30h13.13a3.42,3.42,0,0,1,3.41,3.28l.59,14.76a3.41,3.41,0,0,1-3.41,3.55h-12.86Z" class="cls-16"></path><path d="M949.7,17.93S972.27-9.16,1005,3.26s37.25,38.94,35.56,48.54c0,0,2,41.2-17.64,53.34L986.39,39.38Z" class="cls-17"></path><path d="M967.47,176.82l1.7-44s-52.31.06-19.47-104.7l71.68,22.58-2.82,8.46s22,.57,2.82,28.79l7.9,87.49Z" class="cls-18"></path><path d="M932.2,51.8l15.22-35.36a5.59,5.59,0,0,1,7.49-2.85l84.88,39.14a2.89,2.89,0,0,1,1.69,2.7l-.28,12.17-35.62-7.34Z" class="cls-19"></path><path d="M915.17,61.62c21-1,86.78-3,126,6,0,0-108-42.79-129.64-12.51A4.16,4.16,0,0,0,915.17,61.62Z" class="cls-12"></path><path d="M727.61,449.21s24.85,41.1,87,51.61C814.59,500.82,785,446.34,727.61,449.21Z" class="cls-20"></path><polygon points="893.44 486.01 824.01 536.55 703.72 624.12 530.72 808.58 445.66 801.89 621.04 566.29 729.45 461.44 766.8 425.32 893.44 486.01" class="cls-21"></polygon><path d="M893.44,486,824,536.55l-4.64-11.83c-18.86-45.53-63.39-59.19-89.92-63.27l37.35-36.13Z" class="cls-22"></path><path d="M818.89,348.38,727.61,449.21s33.78,1.1,57.84,14.15c21.49,11.66,29.62,38.9,29.62,38.9l86-102.27Z" class="cls-23"></path><path d="M934.06,562s-71.68,31.54-127.12-66.9l14.66-13.38,110.55,71.68Z" class="cls-20"></path><path d="M883.88,596.88l39.19,246.59-77.42,12.42L777.91,583.63A59.59,59.59,0,0,1,787.47,536l19.39-27.25,35.92-50.48,94.62,65-29.85,41.05-4.92,6.76Z" class="cls-24"></path><path d="M937.4,523.28l-29.85,41.05-4.92,6.76c-15.4-18.66-47.34-44.85-95.77-62.32l35.92-50.48Z" class="cls-22"></path><polygon points="843.08 851.02 853.29 893.5 796.28 940.82 943.62 914.12 924.1 839.08 843.08 851.02" class="cls-25"></polygon><path d="M876.71,386.13s-16.25,31.54-28.59,52.54c-8.78,14.93-41.18,56.42-41.18,56.42a338.94,338.94,0,0,1,68.82,21c34.93,15.1,58.3,45.87,58.3,45.87s36.32-45.87,46.83-65.95c6.28-12,14.34-26.76,19.12-51.61Z" class="cls-26"></path><polygon points="447.92 797.11 414.8 847.75 351.93 893.96 499.75 870.12 538.92 802.08 447.92 797.11" class="cls-27"></polygon><polygon points="881.49 268.57 860.33 289.73 802.48 239 818.13 221.62 881.49 268.57" class="cls-22"></polygon><path d="M1027.72,147.19s-34.4,34.41-61.16,0l-67.1,12.58c-18.64,3.65-32.14,12.25-46.33,24.89l-41.89,44.25,62.13,39.18L796.91,370.36s35.84,37.75,63.55,43.49c29.49,6.1,140,36.8,140,36.8l56.4-125.21L1137.16,314V242.29l-.08-7.16a62.58,62.58,0,0,0-34.6-55.34Z" class="cls-28"></path><path d="M1010.51,324.35l-5.71-6.43c.42-.38,42.82-38.18,60.46-64.19l7.12,4.83C1054.13,285.46,1012.28,322.78,1010.51,324.35Z" class="cls-20"></path><rect transform="matrix(0.82, -0.57, 0.57, 0.82, -27.93, 615.84)" height="21.03" width="109.23" y="342.17" x="918.15" class="cls-29"></rect><path d="M1015.47,335.56l-6.08-9.73c2.21-1.38,54.4-33.9,84.28-44.5l3.83,10.81C1068.81,302.32,1016,335.23,1015.47,335.56Z" class="cls-29"></path><path d="M726.18,351.25c10,34.88,174-9.56,174-9.56s6.69,22.94,34.41,19.11L947.92,357l6.69,7.65V378s9.56,3.82,16.25-6.69c0,0,11.47,4.78,15.29-8.61,0,0,11.47,5.74,14.33-8.6,0,0,12.43,2.87,10.52-8.6l-17.21-27.86a9.78,9.78,0,0,0-8.31-4.64H944.09L856.9,293.6S702.13,267.65,726.18,351.25Z" class="cls-30"></path><path d="M1135.86,334c-1,34.23-5.09,93.77-20.68,98.52-45.83,13.94-206.45,2.86-206.45,2.86s-20.07,1.91-35.36-1L853.3,422.93s-10-7.17-2.87-11.47c0,0-12.43-8.6-1.91-14.34,0,0-7.65-8.6,2.86-13.38,0,0-.07-.27-.15-.73-1.08-6.69,7.11-8.76,13-5.49l22.47,10,12.9,2.39s-21-7.64-17.2-23.89l30.58,8.6,15.77,13.86,115.65-16.25,5.13-41.83,1.56-12.65,85.06-7.64S1136.28,319.93,1135.86,334Z" class="cls-31"></path><polygon points="892.53 404.7 871.32 397.95 871.16 397.85 850.14 384.47 851.68 382.05 872.55 395.33 893.4 401.97 892.53 404.7" class="cls-29"></polygon><polygon points="889.28 416.03 865.14 408.96 847.77 398.35 849.26 395.9 866.31 406.31 890.08 413.28 889.28 416.03" class="cls-29"></polygon><polygon points="873.79 424.26 859.25 418.42 849.69 412.69 851.17 410.23 860.63 415.9 874.86 421.6 873.79 424.26" class="cls-29"></polygon><rect transform="translate(-45.56 497.03) rotate(-27.47)" height="26.93" width="2.87" y="328.22" x="992.36" class="cls-29"></rect><rect transform="translate(-58.94 293.21) rotate(-16.5)" height="26.91" width="2.87" y="336.35" x="979.94" class="cls-29"></rect><rect transform="translate(-56.72 234.32) rotate(-13.42)" height="26.78" width="2.87" y="344.91" x="966.32" class="cls-29"></rect><rect transform="translate(82.69 704.99) rotate(-35.46)" height="80.89" width="1.91" y="182.73" x="1142.9" class="cls-20"></rect><rect transform="translate(77.37 703.65) rotate(-35.46)" height="80.89" width="1.91" y="190.39" x="1138.13" class="cls-20"></rect><rect transform="translate(73.16 701.02) rotate(-35.46)" height="80.89" width="1.91" y="195.65" x="1131.92" class="cls-20"></rect><rect transform="matrix(0.81, -0.58, 0.58, 0.81, 70.97, 699.83)" height="74" width="1.91" y="202.45" x="1123.8" class="cls-20"></rect><rect transform="translate(66.45 692.48) rotate(-35.46)" height="80.89" width="1.91" y="201.89" x="1115.21" class="cls-20"></rect><rect transform="translate(61.5 690.4) rotate(-35.46)" height="80.89" width="1.91" y="208.59" x="1109.48" class="cls-20"></rect><rect transform="translate(58.44 688.15) rotate(-35.53)" height="69.22" width="1.91" y="218.25" x="1102.32" class="cls-20"></rect><rect transform="translate(46.73 665.98) rotate(-34.46)" height="66.01" width="1.91" y="224.64" x="1096.11" class="cls-20"></rect><rect transform="translate(46.66 672.87) rotate(-35)" height="61.78" width="1.91" y="231.55" x="1089.43" class="cls-20"></rect><rect transform="translate(47.86 680.57) rotate(-35.62)" height="49.33" width="1.91" y="241.13" x="1082.26" class="cls-20"></rect><rect transform="translate(41.92 675.21) rotate(-35.44)" height="36.33" width="1.91" y="253.85" x="1076.54" class="cls-20"></rect><rect transform="matrix(0.82, -0.58, 0.58, 0.82, 124.82, 737)" height="28.11" width="1.91" y="158.84" x="1216.42" class="cls-20"></rect><rect transform="matrix(0.81, -0.58, 0.58, 0.81, 125.51, 739.66)" height="45.89" width="1.91" y="152.35" x="1208.3" class="cls-20"></rect><rect transform="translate(115.19 725.71) rotate(-35.15)" height="54.89" width="1.91" y="153.59" x="1202.09" class="cls-20"></rect><rect transform="translate(117.42 732.23) rotate(-35.72)" height="62.33" width="1.91" y="152.75" x="1193.97" class="cls-20"></rect><rect transform="translate(109.53 724.23) rotate(-35.42)" height="64.44" width="1.91" y="158.4" x="1187.77" class="cls-20"></rect><rect transform="translate(105.91 721.3) rotate(-35.44)" height="72.66" width="1.91" y="158.6" x="1180.61" class="cls-20"></rect><rect transform="translate(101.52 719.04) rotate(-35.44)" height="72.66" width="1.91" y="164.34" x="1174.88" class="cls-20"></rect><rect transform="translate(95.71 713.01) rotate(-35.26)" height="71.33" width="1.91" y="170.27" x="1168.68" class="cls-20"></rect><rect transform="translate(93.61 716) rotate(-35.53)" height="73.33" width="1.91" y="175.25" x="1163.19" class="cls-20"></rect><rect transform="translate(89.81 710.96) rotate(-35.46)" height="80.89" width="1.91" y="174.59" x="1155.79" class="cls-20"></rect><rect transform="translate(85.6 708.34) rotate(-35.46)" height="80.89" width="1.91" y="179.86" x="1149.58" class="cls-20"></rect><path d="M1135.86,334l-86.28-3.53,1.56-12.65,85.06-7.64S1136.28,319.93,1135.86,334Z" class="cls-22"></path><path d="M1092.6,292.5c-11.87,0-20.93-3.66-26.24-10.8-7.81-10.48-6.12-26.52,4.76-45.18,10-17.2,26.88-35.11,47.47-50.44s42.58-26.36,61.93-31c21-5.07,36.84-2.1,44.65,8.38s6.11,26.52-4.76,45.18c-10,17.2-26.89,35.11-47.47,50.44s-42.58,26.35-61.93,31A78.89,78.89,0,0,1,1092.6,292.5ZM1199,164.08a68,68,0,0,0-15.78,2.12c-17.88,4.32-38.4,14.65-57.77,29.07s-35.15,31.13-44.41,47c-8.29,14.22-10.29,26.09-5.47,32.55s16.75,7.95,32.75,4.08c17.88-4.32,38.4-14.65,57.78-29.07s35.14-31.13,44.41-47c8.29-14.22,10.28-26.09,5.47-32.55h0C1212.92,166.18,1207,164.08,1199,164.08Z" class="cls-29"></path></g></g></g></svg>